<svg width="36" height="36" viewBox="0 0 36 36" fill="none" xmlns="http://www.w3.org/2000/svg">
<g clip-path="url(#clip0_40_32)">
<path d="M0.434854 11.565L12.6899 23.82C13.3865 24.5185 14.2142 25.0726 15.1253 25.4507C16.0365 25.8288 17.0133 26.0234 17.9999 26.0234C18.9864 26.0234 19.9632 25.8288 20.8744 25.4507C21.7855 25.0726 22.6132 24.5185 23.3099 23.82L35.5649 11.565C35.8473 11.2826 36.006 10.8995 36.006 10.5C36.006 10.1006 35.8473 9.71749 35.5649 9.43503C35.2824 9.15258 34.8993 8.99389 34.4999 8.99389C34.1004 8.99389 33.7173 9.15258 33.4349 9.43503L21.1799 21.69C20.3361 22.5327 19.1924 23.0061 17.9999 23.0061C16.8073 23.0061 15.6636 22.5327 14.8199 21.69L2.56485 9.43503C2.42541 9.29444 2.25951 9.18285 2.07672 9.10669C1.89393 9.03054 1.69787 8.99133 1.49985 8.99133C1.30183 8.99133 1.10578 9.03054 0.922987 9.10669C0.740198 9.18285 0.574298 9.29444 0.434854 9.43503C0.294261 9.57448 0.182667 9.74038 0.106514 9.92317C0.030361 10.106 -0.00884533 10.302 -0.00884533 10.5C-0.00884533 10.698 0.030361 10.8941 0.106514 11.0769C0.182667 11.2597 0.294261 11.4256 0.434854 11.565V11.565Z" fill="black"/>
</g>
<defs>
<clipPath id="clip0_40_32">
<rect width="36" height="36" fill="white" transform="matrix(-1 0 0 -1 36 36)"/>
</clipPath>
</defs>
</svg>
