<svg width="5008" height="5008" viewBox="0 0 5008 5008" fill="none" xmlns="http://www.w3.org/2000/svg">
<g filter="url(#filter0_d_30_17)">
<rect x="4" width="5000" height="5000" rx="2500" fill="white"/>
<path d="M2659.05 2054.2C2653.35 2031.4 2647.65 2010.5 2641.95 1991.5C2636.25 1972.5 2630.55 1954.45 2624.85 1937.35C2583.05 1948.75 2548.85 1968.7 2522.25 1997.2C2495.65 2025.7 2482.35 2058 2482.35 2094.1C2482.35 2126.4 2486.15 2153 2493.75 2173.9L2573.55 2196.7C2670.45 2225.2 2768.3 2261.3 2867.1 2305C2965.9 2346.8 3056.15 2398.1 3137.85 2458.9C3221.45 2517.8 3288.9 2588.1 3340.2 2669.8C3391.5 2749.6 3417.15 2840.8 3417.15 2943.4C3417.15 3177.1 3351.6 3362.35 3220.5 3499.15C3091.3 3635.95 2907.95 3714.8 2670.45 3735.7C2655.25 3737.6 2639.1 3738.55 2622 3738.55C2606.8 3740.45 2591.6 3741.4 2576.4 3741.4C2504.2 3741.4 2430.1 3730.95 2354.1 3710.05C2278.1 3691.05 2200.2 3660.65 2120.4 3618.85C2027.3 3567.55 1949.4 3517.2 1886.7 3467.8C1824 3416.5 1772.7 3353.8 1732.8 3279.7C1694.8 3205.6 1662.5 3109.65 1635.9 2991.85L2111.85 2809.45L2396.85 2951.95C2408.25 3001.35 2421.55 3044.1 2436.75 3080.2C2552.65 3063.1 2610.6 3005.15 2610.6 2906.35C2610.6 2891.15 2608.7 2877.85 2604.9 2866.45C2603 2853.15 2600.15 2840.8 2596.35 2829.4C2596.35 2829.4 2584.95 2822.75 2562.15 2809.45C2539.35 2796.15 2518.45 2787.6 2499.45 2783.8C2315.15 2738.2 2162.2 2684.05 2040.6 2621.35C1920.9 2558.65 1831.6 2478.85 1772.7 2381.95C1715.7 2285.05 1687.2 2162.5 1687.2 2014.3C1687.2 1888.9 1716.65 1774.9 1775.55 1672.3C1834.45 1567.8 1916.15 1483.25 2020.65 1418.65C2127.05 1352.15 2248.65 1313.2 2385.45 1301.8C2402.55 1299.9 2418.7 1298.95 2433.9 1298.95C2451 1297.05 2467.15 1296.1 2482.35 1296.1C2567.85 1296.1 2642.9 1307.5 2707.5 1330.3C2774 1353.1 2850 1384.45 2935.5 1424.35C3022.9 1464.25 3096.05 1508.9 3154.95 1558.3C3213.85 1607.7 3262.3 1669.45 3300.3 1743.55C3340.2 1815.75 3373.45 1908.85 3400.05 2022.85L2944.05 2196.7L2659.05 2054.2ZM2371.2 3114.4C2295.2 3114.4 2234.4 3091.6 2188.8 3046C2143.2 3000.4 2109.95 2934.85 2089.05 2849.35L1667.25 3008.95C1710.95 3197.05 1783.15 3337.65 1883.85 3430.75C1984.55 3521.95 2120.4 3567.55 2291.4 3567.55C2306.6 3567.55 2321.8 3567.55 2337 3567.55C2352.2 3567.55 2367.4 3566.6 2382.6 3564.7C2610.6 3545.7 2787.3 3469.7 2912.7 3336.7C3040 3203.7 3103.65 3025.1 3103.65 2800.9C3103.65 2641.3 3059 2517.8 2969.7 2430.4C2880.4 2343 2745.5 2274.6 2565 2225.2L2337 2162.5C2268.6 2143.5 2223 2115.95 2200.2 2079.85C2179.3 2043.75 2168.85 2001 2168.85 1951.6C2168.85 1902.2 2187.85 1859.45 2225.85 1823.35C2263.85 1787.25 2314.2 1766.35 2376.9 1760.65C2384.5 1760.65 2391.15 1760.65 2396.85 1760.65C2404.45 1758.75 2412.05 1757.8 2419.65 1757.8C2489.95 1757.8 2545.05 1777.75 2584.95 1817.65C2626.75 1855.65 2658.1 1922.15 2679 2017.15L3080.85 1863.25C3040.95 1682.75 2972.55 1548.8 2875.65 1461.4C2780.65 1372.1 2649.55 1327.45 2482.35 1327.45C2467.15 1327.45 2451 1327.45 2433.9 1327.45C2418.7 1327.45 2403.5 1328.4 2388.3 1330.3C2255.3 1341.7 2138.45 1378.75 2037.75 1441.45C1937.05 1504.15 1858.2 1584.9 1801.2 1683.7C1744.2 1782.5 1715.7 1892.7 1715.7 2014.3C1715.7 2181.5 1752.75 2314.5 1826.85 2413.3C1902.85 2512.1 2036.8 2586.2 2228.7 2635.6L2405.4 2681.2C2477.6 2700.2 2534.6 2724.9 2576.4 2755.3C2618.2 2785.7 2639.1 2836.05 2639.1 2906.35C2639.1 3029.85 2560.25 3099.2 2402.55 3114.4H2371.2Z" fill="black"/>
</g>
<defs>
<filter id="filter0_d_30_17" x="0" y="0" width="5008" height="5008" filterUnits="userSpaceOnUse" color-interpolation-filters="sRGB">
<feFlood flood-opacity="0" result="BackgroundImageFix"/>
<feColorMatrix in="SourceAlpha" type="matrix" values="0 0 0 0 0 0 0 0 0 0 0 0 0 0 0 0 0 0 127 0" result="hardAlpha"/>
<feOffset dy="4"/>
<feGaussianBlur stdDeviation="2"/>
<feComposite in2="hardAlpha" operator="out"/>
<feColorMatrix type="matrix" values="0 0 0 0 0 0 0 0 0 0 0 0 0 0 0 0 0 0 0.25 0"/>
<feBlend mode="normal" in2="BackgroundImageFix" result="effect1_dropShadow_30_17"/>
<feBlend mode="normal" in="SourceGraphic" in2="effect1_dropShadow_30_17" result="shape"/>
</filter>
</defs>
</svg>
